<svg xmlns="http://www.w3.org/2000/svg" width="24" height="24" viewBox="0 0 24 24" stroke-width="2" stroke="currentColor" fill="none" stroke-linecap="round" stroke-linejoin="round">
  <path d="M6 2h-2a2 2 0 0 0 -2 2v2a2 2 0 0 0 2 2h2a2 2 0 0 0 2 -2v-2a2 2 0 0 0 -2 -2z" stroke-width="0" fill="currentColor" />
  <path d="M20 2h-2a2 2 0 0 0 -2 2v2a2 2 0 0 0 2 2h2a2 2 0 0 0 2 -2v-2a2 2 0 0 0 -2 -2z" stroke-width="0" fill="currentColor" />
  <path d="M13 2h-2a2 2 0 0 0 -2 2v2a2 2 0 0 0 2 2h2a2 2 0 0 0 2 -2v-2a2 2 0 0 0 -2 -2z" stroke-width="0" fill="currentColor" />
  <path d="M6 9h-2a2 2 0 0 0 -2 2v2a2 2 0 0 0 2 2h2a2 2 0 0 0 2 -2v-2a2 2 0 0 0 -2 -2z" stroke-width="0" fill="currentColor" />
  <path d="M20 9h-2a2 2 0 0 0 -2 2v2a2 2 0 0 0 2 2h2a2 2 0 0 0 2 -2v-2a2 2 0 0 0 -2 -2z" stroke-width="0" fill="currentColor" />
  <path d="M13 9h-2a2 2 0 0 0 -2 2v2a2 2 0 0 0 2 2h2a2 2 0 0 0 2 -2v-2a2 2 0 0 0 -2 -2z" stroke-width="0" fill="currentColor" />
  <path d="M13 16h-2a2 2 0 0 0 -2 2v2a2 2 0 0 0 2 2h2a2 2 0 0 0 2 -2v-2a2 2 0 0 0 -2 -2z" stroke-width="0" fill="currentColor" />
</svg>
